<svg width="36" height="36" viewBox="0 0 36 36" fill="none" xmlns="http://www.w3.org/2000/svg">
<g clip-path="url(#clip0_10_198)">
<path d="M33.9525 28.7775C34.2384 28.5549 34.4663 28.2665 34.6168 27.9369C34.7673 27.6072 34.836 27.2461 34.817 26.8843C34.798 26.5224 34.6919 26.1705 34.5077 25.8585C34.3235 25.5464 34.0666 25.2835 33.759 25.092L33.75 11.9925L31.5 13.5V25.0875C31.1955 25.2785 30.9411 25.5398 30.7583 25.8493C30.5755 26.1589 30.4695 26.5077 30.4493 26.8666C30.429 27.2256 30.495 27.5841 30.6418 27.9123C30.7886 28.2404 31.0119 28.5286 31.293 28.7528L30.4425 29.8822C29.6861 30.8446 29.2671 32.0289 29.25 33.2528V36.0023H31.0837C31.5243 36.0022 31.9522 35.8553 32.2998 35.5847C32.6474 35.3141 32.8949 34.9353 33.003 34.5083L33.7477 31.5023V36.0023H35.9977V33.2798C35.9782 32.05 35.5562 30.8605 34.7962 29.8935L33.9525 28.7775ZM18 0L0 9L18 20.25L36 9L18 0Z" fill="#0E8D65"/>
<path d="M18 22.5L6.75 15.0075V18.855C6.75 20.9025 13.365 27 18 27C22.635 27 29.25 20.9025 29.25 18.855V15.0075L18 22.5Z" fill="#0E8D65"/>
</g>
<defs>
<clipPath id="clip0_10_198">
<rect width="36" height="36" fill="white"/>
</clipPath>
</defs>
</svg>
