<svg width="33" height="33" viewBox="0 0 33 33" fill="none" xmlns="http://www.w3.org/2000/svg">
<g clip-path="url(#clip0_9_845)">
<path d="M17.5248 1.30195C16.8932 0.941016 16.1133 0.941016 15.4752 1.30195L1.0377 9.55195C0.225592 10.016 -0.174017 10.9699 0.0644592 11.8723C0.302936 12.7746 1.12794 13.4062 2.06251 13.4062H4.12501V26.8125L0.825006 29.2875C0.302936 29.6742 6.02147e-06 30.2865 6.02147e-06 30.9375C6.02147e-06 32.0783 0.921686 33 2.06251 33H30.9375C32.0783 33 33 32.0783 33 30.9375C33 30.2865 32.6971 29.6742 32.175 29.2875L28.875 26.8125V13.4062H30.9375C31.8721 13.4062 32.6906 12.7746 32.9291 11.8723C33.1676 10.9699 32.768 10.016 31.9559 9.55195L17.5184 1.30195H17.5248ZM25.7813 13.4062V26.8125H21.6563V13.4062H25.7813ZM18.5625 13.4062V26.8125H14.4375V13.4062H18.5625ZM11.3438 13.4062V26.8125H7.21876V13.4062H11.3438ZM16.5 6.1875C17.047 6.1875 17.5716 6.4048 17.9584 6.79159C18.3452 7.17839 18.5625 7.70299 18.5625 8.25C18.5625 8.79701 18.3452 9.32161 17.9584 9.70841C17.5716 10.0952 17.047 10.3125 16.5 10.3125C15.953 10.3125 15.4284 10.0952 15.0416 9.70841C14.6548 9.32161 14.4375 8.79701 14.4375 8.25C14.4375 7.70299 14.6548 7.17839 15.0416 6.79159C15.4284 6.4048 15.953 6.1875 16.5 6.1875Z" fill="#0E8D65"/>
</g>
<defs>
<clipPath id="clip0_9_845">
<rect width="33" height="33" fill="white"/>
</clipPath>
</defs>
</svg>
