<svg width="38" height="38" viewBox="0 0 38 38" fill="none" xmlns="http://www.w3.org/2000/svg">
<path d="M23.75 4.75H7.91667C6.15917 4.75 4.75 6.15917 4.75 7.91667V17.1317C6.69131 15.2647 9.28672 14.2324 11.98 14.2561C14.6733 14.2797 17.2502 15.3575 19.1583 17.2583C21.0824 19.194 22.1624 21.8124 22.1624 24.5417C22.1624 27.2709 21.0824 29.8893 19.1583 31.825C18.5883 32.3792 17.9708 32.8383 17.3217 33.25H30.0833C31.8408 33.25 33.25 31.8408 33.25 30.0833V14.25L23.75 4.75ZM22.1667 15.8333V7.125L30.875 15.8333H22.1667ZM11.875 17.4167C7.91667 17.4167 4.75 20.5833 4.75 24.5417C4.75 25.935 5.14584 27.2492 5.8425 28.3417L0.965836 33.25L3.16667 35.4508L8.10667 30.59C9.19917 31.2708 10.4975 31.6667 11.875 31.6667C15.8333 31.6667 19 28.5 19 24.5417C19 20.5833 15.8333 17.4167 11.875 17.4167ZM11.875 28.5C10.8252 28.5 9.81837 28.083 9.07604 27.3406C8.33371 26.5983 7.91667 25.5915 7.91667 24.5417C7.91667 23.4919 8.33371 22.485 9.07604 21.7427C9.81837 21.0004 10.8252 20.5833 11.875 20.5833C12.9248 20.5833 13.9316 21.0004 14.674 21.7427C15.4163 22.485 15.8333 23.4919 15.8333 24.5417C15.8333 25.5915 15.4163 26.5983 14.674 27.3406C13.9316 28.083 12.9248 28.5 11.875 28.5Z" fill="#0E8D65"/>
</svg>
