<svg width="36" height="36" viewBox="0 0 36 36" fill="none" xmlns="http://www.w3.org/2000/svg">
<path fill-rule="evenodd" clip-rule="evenodd" d="M13.5 2.25H8.4375C6.8835 2.25 5.625 3.51 5.625 5.0625V30.9375C5.625 32.49 6.885 33.75 8.4375 33.75H27.5625C29.115 33.75 30.375 32.49 30.375 30.9375V19.125C30.375 17.6332 29.7824 16.2024 28.7275 15.1475C27.6726 14.0926 26.2418 13.5 24.75 13.5H21.9375C21.1916 13.5 20.4762 13.2037 19.9488 12.6762C19.4213 12.1488 19.125 11.4334 19.125 10.6875V7.875C19.125 6.38316 18.5324 4.95242 17.4775 3.89752C16.4226 2.84263 14.9918 2.25 13.5 2.25ZM23.415 18.654C23.505 18.5341 23.5701 18.3974 23.6065 18.2519C23.6429 18.1065 23.6499 17.9552 23.627 17.807C23.6041 17.6588 23.5519 17.5167 23.4733 17.389C23.3947 17.2614 23.2914 17.1507 23.1694 17.0635C23.0474 16.9763 22.9092 16.9144 22.763 16.8813C22.6167 16.8483 22.4653 16.8449 22.3177 16.8712C22.1701 16.8975 22.0292 16.9531 21.9034 17.0346C21.7776 17.1162 21.6693 17.222 21.585 17.346L16.731 24.141L14.295 21.705C14.0817 21.5063 13.7997 21.3981 13.5082 21.4032C13.2168 21.4084 12.9387 21.5264 12.7326 21.7326C12.5264 21.9387 12.4084 22.2168 12.4032 22.5082C12.3981 22.7997 12.5063 23.0817 12.705 23.295L16.08 26.67C16.1955 26.7854 16.3347 26.8743 16.488 26.9305C16.6413 26.9867 16.8049 27.0088 16.9676 26.9954C17.1303 26.982 17.2882 26.9333 17.4302 26.8528C17.5722 26.7722 17.695 26.6618 17.79 26.529L23.415 18.654Z" fill="#0E8D65"/>
<path d="M19.4565 2.724C20.6963 4.15345 21.3777 5.98282 21.375 7.875V10.6875C21.375 10.998 21.627 11.25 21.9375 11.25H24.75C26.6422 11.2474 28.4716 11.9287 29.901 13.1685C29.2408 10.6587 27.926 8.36924 26.0909 6.53416C24.2558 4.69909 21.9663 3.38423 19.4565 2.724Z" fill="#0E8D65"/>
</svg>
