<svg width="35" height="35" viewBox="0 0 35 35" fill="none" xmlns="http://www.w3.org/2000/svg">
<path d="M17.4889 1.00011C17.061 1.00081 16.6488 1.16148 16.3332 1.45056L0.516728 15.3956L0.502028 15.4089C-0.00687157 15.8797 -0.125172 16.6479 0.131028 17.2086C0.387228 17.7693 0.987829 18.1708 1.66893 18.1711H5.74713V31.6489C5.74713 32.5691 6.54793 33.2554 7.42608 33.2558H27.5735C28.4516 33.2558 29.2524 32.5691 29.2524 31.6493V18.1711H33.331C34.0121 18.1711 34.6127 17.77 34.8689 17.209C35.1251 16.6483 35.0068 15.8797 34.4979 15.4089L34.4832 15.3956L18.6667 1.45056C18.3455 1.15622 17.9246 0.995164 17.4889 1.00011ZM17.5001 9.50056C21.2101 9.50056 24.2492 12.5316 24.2492 16.2307C24.2492 17.1215 24.0717 17.9734 23.7522 18.7535C23.6833 18.9592 23.5971 19.1587 23.4946 19.3499L18.3181 28.1594C17.7714 28.9004 17.3346 29.0635 16.6769 28.2049L11.9834 20.0916C11.182 18.9637 10.7513 17.6144 10.7511 16.2307C10.7511 12.5312 13.7901 9.50021 17.5001 9.50021M17.5001 12.6537C15.5023 12.6537 13.9133 14.2382 13.9133 16.2304C13.9133 18.2226 15.5023 19.807 17.5001 19.807C19.4979 19.807 21.0869 18.2226 21.0869 16.2307C21.0869 14.2385 19.4979 12.6544 17.5001 12.6544" fill="#0E8D65"/>
</svg>
