<svg width="40" height="40" viewBox="0 0 40 40" fill="none" xmlns="http://www.w3.org/2000/svg">
<path fill-rule="evenodd" clip-rule="evenodd" d="M10 17.5C9.55801 17.5 9.13409 17.6756 8.82153 17.9882C8.50897 18.3007 8.33337 18.7246 8.33337 19.1667V20.8333C8.33337 21.2754 8.50897 21.6993 8.82153 22.0118C9.13409 22.3244 9.55801 22.5 10 22.5H11.6667C12.1087 22.5 12.5327 22.3244 12.8452 22.0118C13.1578 21.6993 13.3334 21.2754 13.3334 20.8333V19.1667C13.3334 18.7246 13.1578 18.3007 12.8452 17.9882C12.5327 17.6756 12.1087 17.5 11.6667 17.5H10ZM10 19.1667V20.8333H11.6667V19.1667H10ZM15 19.1667C15 18.7246 15.1756 18.3007 15.4882 17.9882C15.8008 17.6756 16.2247 17.5 16.6667 17.5H18.3334C18.7754 17.5 19.1993 17.6756 19.5119 17.9882C19.8244 18.3007 20 18.7246 20 19.1667V20.8333C20 21.2754 19.8244 21.6993 19.5119 22.0118C19.1993 22.3244 18.7754 22.5 18.3334 22.5H16.6667C16.2247 22.5 15.8008 22.3244 15.4882 22.0118C15.1756 21.6993 15 21.2754 15 20.8333V19.1667ZM16.6667 19.1667H18.3334V20.8333H16.6667V19.1667ZM23.3334 17.5C22.8913 17.5 22.4674 17.6756 22.1549 17.9882C21.8423 18.3007 21.6667 18.7246 21.6667 19.1667V20.8333C21.6667 21.2754 21.8423 21.6993 22.1549 22.0118C22.4674 22.3244 22.8913 22.5 23.3334 22.5H25C25.4421 22.5 25.866 22.3244 26.1786 22.0118C26.4911 21.6993 26.6667 21.2754 26.6667 20.8333V19.1667C26.6667 18.7246 26.4911 18.3007 26.1786 17.9882C25.866 17.6756 25.4421 17.5 25 17.5H23.3334ZM23.3334 19.1667V20.8333H25V19.1667H23.3334ZM8.33337 25.8333C8.33337 25.3913 8.50897 24.9674 8.82153 24.6548C9.13409 24.3423 9.55801 24.1667 10 24.1667H11.6667C12.1087 24.1667 12.5327 24.3423 12.8452 24.6548C13.1578 24.9674 13.3334 25.3913 13.3334 25.8333V27.5C13.3334 27.942 13.1578 28.366 12.8452 28.6785C12.5327 28.9911 12.1087 29.1667 11.6667 29.1667H10C9.55801 29.1667 9.13409 28.9911 8.82153 28.6785C8.50897 28.366 8.33337 27.942 8.33337 27.5V25.8333ZM11.6667 25.8333V27.5H10V25.8333H11.6667ZM16.6667 24.1667C16.2247 24.1667 15.8008 24.3423 15.4882 24.6548C15.1756 24.9674 15 25.3913 15 25.8333V27.5C15 27.942 15.1756 28.366 15.4882 28.6785C15.8008 28.9911 16.2247 29.1667 16.6667 29.1667H18.3334C18.7754 29.1667 19.1993 28.9911 19.5119 28.6785C19.8244 28.366 20 27.942 20 27.5V25.8333C20 25.3913 19.8244 24.9674 19.5119 24.6548C19.1993 24.3423 18.7754 24.1667 18.3334 24.1667H16.6667ZM18.3334 25.8333H16.6667V27.5H18.3334V25.8333Z" fill="#0E8D65"/>
<path d="M30 27.0833C30 26.8623 29.9122 26.6504 29.756 26.4941C29.5997 26.3378 29.3877 26.25 29.1667 26.25C28.9457 26.25 28.7337 26.3378 28.5775 26.4941C28.4212 26.6504 28.3334 26.8623 28.3334 27.0833V29.5117L29.4109 30.5892C29.568 30.741 29.7785 30.825 29.997 30.8231C30.2155 30.8212 30.4246 30.7335 30.5791 30.579C30.7336 30.4245 30.8212 30.2155 30.8231 29.997C30.825 29.7785 30.741 29.568 30.5892 29.4108L30 28.8217V27.0833Z" fill="#0E8D65"/>
<path fill-rule="evenodd" clip-rule="evenodd" d="M10 5.83333C10 5.61232 10.0878 5.40036 10.2441 5.24408C10.4004 5.0878 10.6123 5 10.8333 5C11.0543 5 11.2663 5.0878 11.4226 5.24408C11.5789 5.40036 11.6667 5.61232 11.6667 5.83333V10C11.6667 10.221 11.7545 10.433 11.9107 10.5893C12.067 10.7455 12.279 10.8333 12.5 10.8333C12.721 10.8333 12.933 10.7455 13.0893 10.5893C13.2455 10.433 13.3333 10.221 13.3333 10V7.5H21.6667V5.83333C21.6667 5.61232 21.7545 5.40036 21.9107 5.24408C22.067 5.0878 22.279 5 22.5 5C22.721 5 22.933 5.0878 23.0893 5.24408C23.2455 5.40036 23.3333 5.61232 23.3333 5.83333V10C23.3333 10.221 23.4211 10.433 23.5774 10.5893C23.7337 10.7455 23.9457 10.8333 24.1667 10.8333C24.3877 10.8333 24.5996 10.7455 24.7559 10.5893C24.9122 10.433 25 10.221 25 10V7.5H27.5C28.163 7.5 28.7989 7.76339 29.2678 8.23223C29.7366 8.70107 30 9.33696 30 10V23.3917C31.4596 23.6026 32.7852 24.3586 33.71 25.5074C34.6348 26.6562 35.0902 28.1126 34.9846 29.5836C34.879 31.0546 34.2202 32.431 33.1408 33.4359C32.0614 34.4409 30.6415 34.9997 29.1667 35C28.2261 35.0008 27.2994 34.7738 26.4657 34.3384C25.6319 33.903 24.916 33.2723 24.3792 32.5H7.5C6.83696 32.5 6.20107 32.2366 5.73223 31.7678C5.26339 31.2989 5 30.663 5 30V10C5 9.33696 5.26339 8.70107 5.73223 8.23223C6.20107 7.76339 6.83696 7.5 7.5 7.5H10V5.83333ZM23.3333 29.1667C23.333 27.7637 23.8383 26.4076 24.7566 25.3469C25.6749 24.2863 26.9448 23.5921 28.3333 23.3917V15H6.66667V30C6.66667 30.221 6.75446 30.433 6.91074 30.5893C7.06702 30.7455 7.27899 30.8333 7.5 30.8333H23.575C23.4143 30.2924 23.3328 29.731 23.3333 29.1667ZM33.3333 29.1667C33.3333 30.2717 32.8943 31.3315 32.1129 32.1129C31.3315 32.8943 30.2717 33.3333 29.1667 33.3333C28.0616 33.3333 27.0018 32.8943 26.2204 32.1129C25.439 31.3315 25 30.2717 25 29.1667C25 28.0616 25.439 27.0018 26.2204 26.2204C27.0018 25.439 28.0616 25 29.1667 25C30.2717 25 31.3315 25.439 32.1129 26.2204C32.8943 27.0018 33.3333 28.0616 33.3333 29.1667Z" fill="#0E8D65"/>
</svg>
