<svg width="37" height="37" viewBox="0 0 37 37" fill="none" xmlns="http://www.w3.org/2000/svg">
<path d="M24.6667 4.625C25.4446 4.62475 26.1938 4.91854 26.7642 5.44747C27.3346 5.97641 27.684 6.70139 27.7423 7.47708L27.75 7.70833V15.4167H30.0625C30.6374 15.4167 31.1916 15.6308 31.6171 16.0173C32.0427 16.4038 32.309 16.935 32.3642 17.5072L32.375 17.7292V29.2917C32.3751 30.4714 31.9243 31.6065 31.115 32.4648C30.3057 33.3231 29.199 33.8398 28.0213 33.909L27.75 33.9167H7.70833C6.93044 33.9169 6.18121 33.6231 5.61082 33.0942C5.04043 32.5653 4.69105 31.8403 4.63271 31.0646L4.625 30.8333V7.70833C4.62475 6.93044 4.91854 6.18121 5.44747 5.61082C5.97641 5.04043 6.70139 4.69105 7.47708 4.63271L7.70833 4.625H24.6667ZM29.2917 18.5H27.75V30.8333C28.1589 30.8333 28.551 30.6709 28.8401 30.3818C29.1292 30.0927 29.2917 29.7005 29.2917 29.2917V18.5ZM16.9583 20.0417H12.3333C11.9404 20.0421 11.5624 20.1926 11.2767 20.4623C10.991 20.7321 10.8191 21.1007 10.796 21.493C10.773 21.8852 10.9006 22.2715 11.1528 22.5728C11.405 22.8741 11.7628 23.0678 12.153 23.1142L12.3333 23.125H16.9583C17.3513 23.1246 17.7292 22.9741 18.0149 22.7044C18.3007 22.4346 18.4726 22.0659 18.4956 21.6737C18.5187 21.2814 18.391 20.8952 18.1388 20.5938C17.8866 20.2925 17.5289 20.0989 17.1387 20.0525L16.9583 20.0417ZM20.0417 12.3333H12.3333C11.9245 12.3333 11.5323 12.4958 11.2432 12.7849C10.9541 13.074 10.7917 13.4661 10.7917 13.875C10.7917 14.2839 10.9541 14.676 11.2432 14.9651C11.5323 15.2542 11.9245 15.4167 12.3333 15.4167H20.0417C20.4505 15.4167 20.8427 15.2542 21.1318 14.9651C21.4209 14.676 21.5833 14.2839 21.5833 13.875C21.5833 13.4661 21.4209 13.074 21.1318 12.7849C20.8427 12.4958 20.4505 12.3333 20.0417 12.3333Z" fill="#0E8D65"/>
</svg>
