<svg width="37" height="37" viewBox="0 0 37 37" fill="none" xmlns="http://www.w3.org/2000/svg">
<path d="M29.2485 19.5138L20.313 28.4493C19.7925 28.97 19.4229 29.6222 19.2437 30.3363L18.55 33.1076C18.4816 33.3832 18.4856 33.6719 18.5617 33.9455C18.6378 34.2191 18.7834 34.4684 18.9843 34.6691C19.1852 34.8698 19.4346 35.0151 19.7083 35.091C19.9819 35.1668 20.2706 35.1706 20.5461 35.1019L23.3174 34.41C24.0316 34.2308 24.6837 33.8613 25.2044 33.3407L34.1399 24.4052C34.7803 23.7546 35.1375 22.8773 35.1338 21.9644C35.1301 21.0515 34.7658 20.1771 34.1201 19.5318C33.4745 18.8864 32.6 18.5223 31.6871 18.519C30.7742 18.5156 29.897 18.8732 29.2467 19.5138M12.95 4.62501C12.95 4.37969 12.8526 4.14441 12.6791 3.97094C12.5056 3.79747 12.2703 3.70001 12.025 3.70001C11.7797 3.70001 11.5444 3.79747 11.371 3.97094C11.1975 4.14441 11.1 4.37969 11.1 4.62501V5.55001H10.175C9.43905 5.55001 8.73322 5.84238 8.2128 6.36279C7.69239 6.8832 7.40002 7.58904 7.40002 8.32501V30.525C7.40002 31.261 7.69239 31.9668 8.2128 32.4872C8.73322 33.0076 9.43905 33.3 10.175 33.3H16.6556C16.6679 33.0891 16.7012 32.8751 16.7555 32.6581L17.4492 29.8868C17.7091 28.8473 18.2462 27.8978 19.0032 27.1395L27.9387 18.204C28.4168 17.728 28.9805 17.3463 29.6 17.0792V8.32501C29.6 7.58904 29.3077 6.8832 28.7872 6.36279C28.2668 5.84238 27.561 5.55001 26.825 5.55001H25.9V4.62501C25.9 4.37969 25.8026 4.14441 25.6291 3.97094C25.4556 3.79747 25.2203 3.70001 24.975 3.70001C24.7297 3.70001 24.4944 3.79747 24.3209 3.97094C24.1475 4.14441 24.05 4.37969 24.05 4.62501V5.55001H19.425V4.62501C19.425 4.37969 19.3276 4.14441 19.1541 3.97094C18.9806 3.79747 18.7453 3.70001 18.5 3.70001C18.2547 3.70001 18.0194 3.79747 17.8459 3.97094C17.6725 4.14441 17.575 4.37969 17.575 4.62501V5.55001H12.95V4.62501ZM13.875 12.95H23.125C23.3703 12.95 23.6056 13.0475 23.7791 13.2209C23.9526 13.3944 24.05 13.6297 24.05 13.875C24.05 14.1203 23.9526 14.3556 23.7791 14.5291C23.6056 14.7026 23.3703 14.8 23.125 14.8H13.875C13.6297 14.8 13.3944 14.7026 13.221 14.5291C13.0475 14.3556 12.95 14.1203 12.95 13.875C12.95 13.6297 13.0475 13.3944 13.221 13.2209C13.3944 13.0475 13.6297 12.95 13.875 12.95ZM24.05 19.425C24.05 19.6703 23.9526 19.9056 23.7791 20.0791C23.6056 20.2526 23.3703 20.35 23.125 20.35H13.875C13.6297 20.35 13.3944 20.2526 13.221 20.0791C13.0475 19.9056 12.95 19.6703 12.95 19.425C12.95 19.1797 13.0475 18.9444 13.221 18.7709C13.3944 18.5975 13.6297 18.5 13.875 18.5H23.125C23.3703 18.5 23.6056 18.5975 23.7791 18.7709C23.9526 18.9444 24.05 19.1797 24.05 19.425ZM13.875 24.05H17.575C17.8203 24.05 18.0556 24.1475 18.2291 24.3209C18.4026 24.4944 18.5 24.7297 18.5 24.975C18.5 25.2203 18.4026 25.4556 18.2291 25.6291C18.0556 25.8026 17.8203 25.9 17.575 25.9H13.875C13.6297 25.9 13.3944 25.8026 13.221 25.6291C13.0475 25.4556 12.95 25.2203 12.95 24.975C12.95 24.7297 13.0475 24.4944 13.221 24.3209C13.3944 24.1475 13.6297 24.05 13.875 24.05Z" fill="#0E8D65"/>
</svg>
