<svg width="36" height="36" viewBox="0 0 36 36" fill="none" xmlns="http://www.w3.org/2000/svg">
<path d="M3.07499 19.5H11.2905C11.5472 24.2503 13.0613 28.8471 15.678 32.82C12.4001 32.3055 9.38517 30.7192 7.1046 28.3092C4.82403 25.8991 3.40794 22.8013 3.07499 19.5ZM3.07349 16.5C3.40605 13.1987 4.82329 10.1007 7.10359 7.69039C9.38388 5.28009 12.3987 3.69343 15.6765 3.17853C13.0598 7.15144 11.5457 11.7482 11.289 16.4985L3.07349 16.5ZM32.9235 16.5H24.708C24.4516 11.7492 22.9374 7.15188 20.3205 3.17853C23.5984 3.69306 26.6133 5.27937 28.8939 7.68939C31.1744 10.0994 32.592 13.1973 32.925 16.4985M32.925 19.4985C32.5921 22.7996 31.1747 25.8973 28.8945 28.3073C26.6142 30.7173 23.5996 32.3037 20.322 32.8185C22.9384 28.846 24.4525 24.2498 24.7095 19.5L32.925 19.4985ZM14.295 19.5H21.705C21.4586 23.5494 20.1834 27.4689 18 30.888C15.8166 27.4689 14.5414 23.5494 14.295 19.5ZM14.295 16.5C14.5414 12.4507 15.8166 8.53114 18 5.11203C20.1834 8.53114 21.4586 12.4507 21.705 16.5H14.295Z" fill="#0E8D65"/>
</svg>
