<svg width="80" height="80" viewBox="0 0 80 80" fill="none" xmlns="http://www.w3.org/2000/svg">
<g clip-path="url(#clip0_10_262)">
<mask id="mask0_10_262" style="mask-type:alpha" maskUnits="userSpaceOnUse" x="0" y="9" width="80" height="66">
<path d="M73.6681 20.8305C63.4467 12.9722 53.5327 19.3766 42.4744 17.1122C31.3363 14.8315 26.8986 7.23724 14.2125 10.7427C2.97469 13.8479 -3.84406 26.2976 2.33375 36.7205C4.09422 39.6907 7.09328 41.9315 8.3189 45.2547C10.2959 50.6158 7.28656 54.7318 7.87359 60.0004C10.313 81.8912 43.7445 73.4119 56.0459 66.6011C75.3381 55.9199 88.3894 32.1485 73.6681 20.8305Z" fill="url(#paint0_linear_10_262)" fill-opacity="0.16"/>
</mask>
<g mask="url(#mask0_10_262)">
<path d="M73.6681 20.8305C63.4467 12.9722 53.5327 19.3766 42.4744 17.1122C31.3363 14.8315 26.8986 7.23724 14.2125 10.7427C2.97469 13.8479 -3.84406 26.2976 2.33375 36.7205C4.09422 39.6907 7.09328 41.9315 8.3189 45.2547C10.2959 50.6158 7.28656 54.7318 7.87359 60.0004C10.313 81.8912 43.7445 73.4119 56.0459 66.6011C75.3381 55.9199 88.3894 32.1485 73.6681 20.8305Z" fill="#00A76F"/>
<path opacity="0.08" d="M64.2457 12.8713C63.6655 12.8713 63.0854 12.6504 62.6437 12.2088C61.7604 11.3255 61.7604 9.88818 62.6437 9.00474C63.5269 8.1213 64.9645 8.1213 65.8477 9.00474C66.731 9.88818 66.731 11.3254 65.8477 12.2088C65.4062 12.6504 64.826 12.8713 64.2457 12.8713ZM64.2459 9.90396C64.0657 9.90396 63.8857 9.9724 63.7487 10.1096C63.4746 10.3836 63.4746 10.8297 63.7487 11.104C64.0227 11.378 64.4688 11.3782 64.743 11.104C65.0171 10.8299 65.0171 10.3838 64.743 10.1096C64.6059 9.9724 64.4259 9.90396 64.2459 9.90396Z" fill="#00A76F"/>
<path opacity="0.24" d="M68.175 20.5105C67.5949 20.5107 67.0147 20.2898 66.573 19.848C66.1451 19.4201 65.9094 18.8512 65.9094 18.246C65.9094 17.6408 66.1451 17.0719 66.573 16.644C67.4561 15.7607 68.8935 15.7605 69.7769 16.644C70.2049 17.0719 70.4405 17.6408 70.4405 18.246C70.4405 18.8513 70.2049 19.4202 69.7768 19.848C69.3355 20.2896 68.7552 20.5105 68.175 20.5105ZM68.175 17.5432C67.995 17.5432 67.8149 17.6116 67.6779 17.7488C67.5449 17.8816 67.4719 18.0582 67.4719 18.246C67.4719 18.4338 67.5451 18.6104 67.6779 18.7432C67.9521 19.0174 68.3982 19.0174 68.6722 18.7432C68.8052 18.6104 68.8782 18.4338 68.8782 18.246C68.8782 18.0582 68.805 17.8818 68.6722 17.7488C68.5352 17.6116 68.3552 17.5432 68.175 17.5432Z" fill="#00A76F"/>
<path opacity="0.08" d="M16.4649 36.9937C15.8848 36.9937 15.3045 36.7727 14.8629 36.3312C13.9796 35.4477 13.9796 34.0104 14.8629 33.1271C15.7462 32.244 17.1837 32.2438 18.067 33.1271C18.9502 34.0106 18.9502 35.4477 18.067 36.3312C17.6254 36.7727 17.0451 36.9937 16.4649 36.9937ZM16.4649 34.0263C16.2849 34.0263 16.1048 34.0948 15.9677 34.232C15.6935 34.506 15.6935 34.9521 15.9677 35.2263C16.2418 35.5006 16.6881 35.5004 16.9621 35.2263C17.2363 34.9523 17.2363 34.5062 16.9621 34.232C16.8251 34.0948 16.6451 34.0263 16.4649 34.0263Z" fill="#00A76F"/>
<path opacity="0.48" d="M15.4577 44.0159C15.2577 44.0159 15.0579 43.9396 14.9052 43.7871L13.9733 42.8552L13.0415 43.7871C12.7363 44.0921 12.2418 44.0921 11.9366 43.7871C11.6315 43.4819 11.6315 42.9873 11.9366 42.6823L13.421 41.1979C13.7262 40.8929 14.2207 40.8929 14.5258 41.1979L16.0102 42.6823C16.3154 42.9874 16.3154 43.4821 16.0102 43.7871C15.8576 43.9394 15.6577 44.0159 15.4577 44.0159Z" fill="#00A76F"/>
<path opacity="0.24" d="M66.6906 66.6408C66.4906 66.6408 66.2908 66.5645 66.1381 66.412L65.2063 65.4801L64.2744 66.412C63.9692 66.717 63.4747 66.717 63.1695 66.412C62.8644 66.1069 62.8644 65.6122 63.1695 65.3072L64.6539 63.8228C64.9591 63.5178 65.4536 63.5178 65.7588 63.8228L67.2431 65.3072C67.5483 65.6123 67.5483 66.107 67.2431 66.412C67.0905 66.5644 66.8906 66.6408 66.6906 66.6408Z" fill="#00A76F"/>
</g>
<path fill-rule="evenodd" clip-rule="evenodd" d="M35.5 24.25H30.4375C28.8835 24.25 27.625 25.51 27.625 27.0625V52.9375C27.625 54.49 28.885 55.75 30.4375 55.75H49.5625C51.115 55.75 52.375 54.49 52.375 52.9375V41.125C52.375 39.6332 51.7824 38.2024 50.7275 37.1475C49.6726 36.0926 48.2418 35.5 46.75 35.5H43.9375C43.1916 35.5 42.4762 35.2037 41.9488 34.6762C41.4213 34.1488 41.125 33.4334 41.125 32.6875V29.875C41.125 28.3832 40.5324 26.9524 39.4775 25.8975C38.4226 24.8426 36.9918 24.25 35.5 24.25ZM45.415 40.654C45.505 40.5341 45.5701 40.3974 45.6065 40.2519C45.6429 40.1065 45.6499 39.9552 45.627 39.807C45.6041 39.6588 45.5519 39.5167 45.4733 39.389C45.3947 39.2614 45.2914 39.1507 45.1694 39.0635C45.0474 38.9763 44.9092 38.9144 44.763 38.8813C44.6167 38.8483 44.4653 38.8449 44.3177 38.8712C44.1701 38.8975 44.0292 38.9531 43.9034 39.0346C43.7776 39.1162 43.6693 39.222 43.585 39.346L38.731 46.141L36.295 43.705C36.0817 43.5063 35.7997 43.3981 35.5082 43.4032C35.2168 43.4084 34.9387 43.5264 34.7326 43.7326C34.5264 43.9387 34.4084 44.2168 34.4032 44.5082C34.3981 44.7997 34.5063 45.0817 34.705 45.295L38.08 48.67C38.1955 48.7854 38.3347 48.8743 38.488 48.9305C38.6413 48.9867 38.8049 49.0088 38.9676 48.9954C39.1303 48.982 39.2882 48.9333 39.4302 48.8528C39.5722 48.7722 39.695 48.6618 39.79 48.529L45.415 40.654Z" fill="#0E8D65"/>
<path d="M41.4565 24.724C42.6963 26.1534 43.3777 27.9828 43.375 29.875V32.6875C43.375 32.998 43.627 33.25 43.9375 33.25H46.75C48.6422 33.2474 50.4716 33.9287 51.901 35.1685C51.2408 32.6587 49.926 30.3692 48.0909 28.5342C46.2558 26.6991 43.9663 25.3842 41.4565 24.724Z" fill="#0E8D65"/>
</g>
<defs>
<linearGradient id="paint0_linear_10_262" x1="54.8017" y1="85.5018" x2="87.7477" y2="16.1512" gradientUnits="userSpaceOnUse">
<stop/>
<stop offset="1" stop-opacity="0.01"/>
</linearGradient>
<clipPath id="clip0_10_262">
<rect width="80" height="80" fill="white"/>
</clipPath>
</defs>
</svg>
