<svg width="80" height="80" viewBox="0 0 80 80" fill="none" xmlns="http://www.w3.org/2000/svg">
<g clip-path="url(#clip0_10_138)">
<mask id="mask0_10_138" style="mask-type:alpha" maskUnits="userSpaceOnUse" x="0" y="9" width="80" height="66">
<path d="M73.6681 20.8305C63.4467 12.9722 53.5327 19.3766 42.4744 17.1122C31.3363 14.8315 26.8986 7.23724 14.2125 10.7427C2.97469 13.8479 -3.84406 26.2976 2.33375 36.7205C4.09422 39.6907 7.09328 41.9315 8.3189 45.2547C10.2959 50.6158 7.28656 54.7318 7.87359 60.0004C10.313 81.8912 43.7445 73.4119 56.0459 66.6011C75.3381 55.9199 88.3894 32.1485 73.6681 20.8305Z" fill="url(#paint0_linear_10_138)" fill-opacity="0.16"/>
</mask>
<g mask="url(#mask0_10_138)">
<path d="M73.6681 20.8305C63.4467 12.9722 53.5327 19.3766 42.4744 17.1122C31.3363 14.8315 26.8986 7.23724 14.2125 10.7427C2.97469 13.8479 -3.84406 26.2976 2.33375 36.7205C4.09422 39.6907 7.09328 41.9315 8.3189 45.2547C10.2959 50.6158 7.28656 54.7318 7.87359 60.0004C10.313 81.8912 43.7445 73.4119 56.0459 66.6011C75.3381 55.9199 88.3894 32.1485 73.6681 20.8305Z" fill="#00A76F"/>
<path opacity="0.08" d="M64.2457 12.8713C63.6655 12.8713 63.0854 12.6504 62.6437 12.2088C61.7604 11.3255 61.7604 9.88818 62.6437 9.00474C63.5269 8.1213 64.9645 8.1213 65.8477 9.00474C66.731 9.88818 66.731 11.3254 65.8477 12.2088C65.4062 12.6504 64.826 12.8713 64.2457 12.8713ZM64.2459 9.90396C64.0657 9.90396 63.8857 9.9724 63.7487 10.1096C63.4746 10.3836 63.4746 10.8297 63.7487 11.104C64.0227 11.378 64.4688 11.3782 64.743 11.104C65.0171 10.8299 65.0171 10.3838 64.743 10.1096C64.6059 9.9724 64.4259 9.90396 64.2459 9.90396Z" fill="#00A76F"/>
<path opacity="0.24" d="M68.175 20.5105C67.5949 20.5107 67.0147 20.2898 66.573 19.848C66.1451 19.4201 65.9094 18.8512 65.9094 18.246C65.9094 17.6408 66.1451 17.0719 66.573 16.644C67.4561 15.7607 68.8935 15.7605 69.7769 16.644C70.2049 17.0719 70.4405 17.6408 70.4405 18.246C70.4405 18.8513 70.2049 19.4202 69.7768 19.848C69.3355 20.2896 68.7552 20.5105 68.175 20.5105ZM68.175 17.5432C67.995 17.5432 67.8149 17.6116 67.6779 17.7488C67.5449 17.8816 67.4719 18.0582 67.4719 18.246C67.4719 18.4338 67.5451 18.6104 67.6779 18.7432C67.9521 19.0174 68.3982 19.0174 68.6722 18.7432C68.8052 18.6104 68.8782 18.4338 68.8782 18.246C68.8782 18.0582 68.805 17.8818 68.6722 17.7488C68.5352 17.6116 68.3552 17.5432 68.175 17.5432Z" fill="#00A76F"/>
<path opacity="0.08" d="M16.4649 36.9937C15.8848 36.9937 15.3045 36.7727 14.8629 36.3312C13.9796 35.4477 13.9796 34.0104 14.8629 33.1271C15.7462 32.244 17.1837 32.2438 18.067 33.1271C18.9502 34.0106 18.9502 35.4477 18.067 36.3312C17.6254 36.7727 17.0451 36.9937 16.4649 36.9937ZM16.4649 34.0263C16.2849 34.0263 16.1048 34.0948 15.9677 34.232C15.6935 34.506 15.6935 34.9521 15.9677 35.2263C16.2418 35.5006 16.6881 35.5004 16.9621 35.2263C17.2363 34.9523 17.2363 34.5062 16.9621 34.232C16.8251 34.0948 16.6451 34.0263 16.4649 34.0263Z" fill="#00A76F"/>
<path opacity="0.48" d="M15.4577 44.0159C15.2577 44.0159 15.0579 43.9396 14.9052 43.7871L13.9733 42.8552L13.0415 43.7871C12.7363 44.0921 12.2418 44.0921 11.9366 43.7871C11.6315 43.4819 11.6315 42.9873 11.9366 42.6823L13.421 41.1979C13.7262 40.8929 14.2207 40.8929 14.5258 41.1979L16.0102 42.6823C16.3154 42.9874 16.3154 43.4821 16.0102 43.7871C15.8576 43.9394 15.6577 44.0159 15.4577 44.0159Z" fill="#00A76F"/>
<path opacity="0.24" d="M66.6906 66.6408C66.4906 66.6408 66.2908 66.5645 66.1381 66.412L65.2063 65.4801L64.2744 66.412C63.9692 66.717 63.4747 66.717 63.1695 66.412C62.8644 66.1069 62.8644 65.6122 63.1695 65.3072L64.6539 63.8228C64.9591 63.5178 65.4536 63.5178 65.7588 63.8228L67.2431 65.3072C67.5483 65.6123 67.5483 66.107 67.2431 66.412C67.0905 66.5644 66.8906 66.6408 66.6906 66.6408Z" fill="#00A76F"/>
</g>
<path fill-rule="evenodd" clip-rule="evenodd" d="M30 41.5C29.558 41.5 29.1341 41.6756 28.8215 41.9882C28.509 42.3007 28.3334 42.7246 28.3334 43.1667V44.8333C28.3334 45.2754 28.509 45.6993 28.8215 46.0118C29.1341 46.3244 29.558 46.5 30 46.5H31.6667C32.1087 46.5 32.5327 46.3244 32.8452 46.0118C33.1578 45.6993 33.3334 45.2754 33.3334 44.8333V43.1667C33.3334 42.7246 33.1578 42.3007 32.8452 41.9882C32.5327 41.6756 32.1087 41.5 31.6667 41.5H30ZM30 43.1667V44.8333H31.6667V43.1667H30ZM35 43.1667C35 42.7246 35.1756 42.3007 35.4882 41.9882C35.8008 41.6756 36.2247 41.5 36.6667 41.5H38.3334C38.7754 41.5 39.1993 41.6756 39.5119 41.9882C39.8244 42.3007 40 42.7246 40 43.1667V44.8333C40 45.2754 39.8244 45.6993 39.5119 46.0118C39.1993 46.3244 38.7754 46.5 38.3334 46.5H36.6667C36.2247 46.5 35.8008 46.3244 35.4882 46.0118C35.1756 45.6993 35 45.2754 35 44.8333V43.1667ZM36.6667 43.1667H38.3334V44.8333H36.6667V43.1667ZM43.3334 41.5C42.8913 41.5 42.4674 41.6756 42.1549 41.9882C41.8423 42.3007 41.6667 42.7246 41.6667 43.1667V44.8333C41.6667 45.2754 41.8423 45.6993 42.1549 46.0118C42.4674 46.3244 42.8913 46.5 43.3334 46.5H45C45.4421 46.5 45.866 46.3244 46.1786 46.0118C46.4911 45.6993 46.6667 45.2754 46.6667 44.8333V43.1667C46.6667 42.7246 46.4911 42.3007 46.1786 41.9882C45.866 41.6756 45.4421 41.5 45 41.5H43.3334ZM43.3334 43.1667V44.8333H45V43.1667H43.3334ZM28.3334 49.8333C28.3334 49.3913 28.509 48.9674 28.8215 48.6548C29.1341 48.3423 29.558 48.1667 30 48.1667H31.6667C32.1087 48.1667 32.5327 48.3423 32.8452 48.6548C33.1578 48.9674 33.3334 49.3913 33.3334 49.8333V51.5C33.3334 51.942 33.1578 52.366 32.8452 52.6785C32.5327 52.9911 32.1087 53.1667 31.6667 53.1667H30C29.558 53.1667 29.1341 52.9911 28.8215 52.6785C28.509 52.366 28.3334 51.942 28.3334 51.5V49.8333ZM31.6667 49.8333V51.5H30V49.8333H31.6667ZM36.6667 48.1667C36.2247 48.1667 35.8008 48.3423 35.4882 48.6548C35.1756 48.9674 35 49.3913 35 49.8333V51.5C35 51.942 35.1756 52.366 35.4882 52.6785C35.8008 52.9911 36.2247 53.1667 36.6667 53.1667H38.3334C38.7754 53.1667 39.1993 52.9911 39.5119 52.6785C39.8244 52.366 40 51.942 40 51.5V49.8333C40 49.3913 39.8244 48.9674 39.5119 48.6548C39.1993 48.3423 38.7754 48.1667 38.3334 48.1667H36.6667ZM38.3334 49.8333H36.6667V51.5H38.3334V49.8333Z" fill="#0E8D65"/>
<path d="M50 51.0833C50 50.8623 49.9122 50.6504 49.756 50.4941C49.5997 50.3378 49.3877 50.25 49.1667 50.25C48.9457 50.25 48.7337 50.3378 48.5775 50.4941C48.4212 50.6504 48.3334 50.8623 48.3334 51.0833V53.5117L49.4109 54.5892C49.568 54.741 49.7785 54.825 49.997 54.8231C50.2155 54.8212 50.4246 54.7335 50.5791 54.579C50.7336 54.4245 50.8212 54.2155 50.8231 53.997C50.825 53.7785 50.741 53.568 50.5892 53.4108L50 52.8217V51.0833Z" fill="#0E8D65"/>
<path fill-rule="evenodd" clip-rule="evenodd" d="M30 29.8333C30 29.6123 30.0878 29.4004 30.2441 29.2441C30.4004 29.0878 30.6123 29 30.8333 29C31.0543 29 31.2663 29.0878 31.4226 29.2441C31.5789 29.4004 31.6667 29.6123 31.6667 29.8333V34C31.6667 34.221 31.7545 34.433 31.9107 34.5893C32.067 34.7455 32.279 34.8333 32.5 34.8333C32.721 34.8333 32.933 34.7455 33.0893 34.5893C33.2455 34.433 33.3333 34.221 33.3333 34V31.5H41.6667V29.8333C41.6667 29.6123 41.7545 29.4004 41.9107 29.2441C42.067 29.0878 42.279 29 42.5 29C42.721 29 42.933 29.0878 43.0893 29.2441C43.2455 29.4004 43.3333 29.6123 43.3333 29.8333V34C43.3333 34.221 43.4211 34.433 43.5774 34.5893C43.7337 34.7455 43.9457 34.8333 44.1667 34.8333C44.3877 34.8333 44.5996 34.7455 44.7559 34.5893C44.9122 34.433 45 34.221 45 34V31.5H47.5C48.163 31.5 48.7989 31.7634 49.2678 32.2322C49.7366 32.7011 50 33.337 50 34V47.3917C51.4596 47.6026 52.7852 48.3586 53.71 49.5074C54.6348 50.6562 55.0902 52.1126 54.9846 53.5836C54.879 55.0546 54.2202 56.431 53.1408 57.4359C52.0614 58.4409 50.6415 58.9997 49.1667 59C48.2261 59.0008 47.2994 58.7738 46.4657 58.3384C45.6319 57.903 44.916 57.2723 44.3792 56.5H27.5C26.837 56.5 26.2011 56.2366 25.7322 55.7678C25.2634 55.2989 25 54.663 25 54V34C25 33.337 25.2634 32.7011 25.7322 32.2322C26.2011 31.7634 26.837 31.5 27.5 31.5H30V29.8333ZM43.3333 53.1667C43.333 51.7637 43.8383 50.4076 44.7566 49.3469C45.6749 48.2863 46.9448 47.5921 48.3333 47.3917V39H26.6667V54C26.6667 54.221 26.7545 54.433 26.9107 54.5893C27.067 54.7455 27.279 54.8333 27.5 54.8333H43.575C43.4143 54.2924 43.3328 53.731 43.3333 53.1667ZM53.3333 53.1667C53.3333 54.2717 52.8943 55.3315 52.1129 56.1129C51.3315 56.8943 50.2717 57.3333 49.1667 57.3333C48.0616 57.3333 47.0018 56.8943 46.2204 56.1129C45.439 55.3315 45 54.2717 45 53.1667C45 52.0616 45.439 51.0018 46.2204 50.2204C47.0018 49.439 48.0616 49 49.1667 49C50.2717 49 51.3315 49.439 52.1129 50.2204C52.8943 51.0018 53.3333 52.0616 53.3333 53.1667Z" fill="#0E8D65"/>
</g>
<defs>
<linearGradient id="paint0_linear_10_138" x1="54.8017" y1="85.5018" x2="87.7477" y2="16.1512" gradientUnits="userSpaceOnUse">
<stop/>
<stop offset="1" stop-opacity="0.01"/>
</linearGradient>
<clipPath id="clip0_10_138">
<rect width="80" height="80" fill="white"/>
</clipPath>
</defs>
</svg>
