<svg width="80" height="80" viewBox="0 0 80 80" fill="none" xmlns="http://www.w3.org/2000/svg">
<g clip-path="url(#clip0_10_106)">
<mask id="mask0_10_106" style="mask-type:alpha" maskUnits="userSpaceOnUse" x="0" y="9" width="80" height="66">
<path d="M73.6681 20.8305C63.4467 12.9722 53.5327 19.3766 42.4744 17.1122C31.3363 14.8315 26.8986 7.23724 14.2125 10.7427C2.97469 13.8479 -3.84406 26.2976 2.33375 36.7205C4.09422 39.6907 7.09328 41.9315 8.3189 45.2547C10.2959 50.6158 7.28656 54.7318 7.87359 60.0004C10.313 81.8912 43.7445 73.4119 56.0459 66.6011C75.3381 55.9199 88.3894 32.1485 73.6681 20.8305Z" fill="url(#paint0_linear_10_106)" fill-opacity="0.16"/>
</mask>
<g mask="url(#mask0_10_106)">
<path d="M73.6681 20.8305C63.4467 12.9722 53.5327 19.3766 42.4744 17.1122C31.3363 14.8315 26.8986 7.23724 14.2125 10.7427C2.97469 13.8479 -3.84406 26.2976 2.33375 36.7205C4.09422 39.6907 7.09328 41.9315 8.3189 45.2547C10.2959 50.6158 7.28656 54.7318 7.87359 60.0004C10.313 81.8912 43.7445 73.4119 56.0459 66.6011C75.3381 55.9199 88.3894 32.1485 73.6681 20.8305Z" fill="#00A76F"/>
<path opacity="0.08" d="M64.2457 12.8713C63.6655 12.8713 63.0854 12.6504 62.6437 12.2088C61.7604 11.3255 61.7604 9.88818 62.6437 9.00474C63.5269 8.1213 64.9645 8.1213 65.8477 9.00474C66.731 9.88818 66.731 11.3254 65.8477 12.2088C65.4062 12.6504 64.826 12.8713 64.2457 12.8713ZM64.2459 9.90396C64.0657 9.90396 63.8857 9.9724 63.7487 10.1096C63.4746 10.3836 63.4746 10.8297 63.7487 11.104C64.0227 11.378 64.4688 11.3782 64.743 11.104C65.0171 10.8299 65.0171 10.3838 64.743 10.1096C64.6059 9.9724 64.4259 9.90396 64.2459 9.90396Z" fill="#00A76F"/>
<path opacity="0.24" d="M68.175 20.5105C67.5949 20.5107 67.0147 20.2898 66.573 19.848C66.1451 19.4201 65.9094 18.8512 65.9094 18.246C65.9094 17.6408 66.1451 17.0719 66.573 16.644C67.4561 15.7607 68.8935 15.7605 69.7769 16.644C70.2049 17.0719 70.4405 17.6408 70.4405 18.246C70.4405 18.8513 70.2049 19.4202 69.7768 19.848C69.3355 20.2896 68.7552 20.5105 68.175 20.5105ZM68.175 17.5432C67.995 17.5432 67.8149 17.6116 67.6779 17.7488C67.5449 17.8816 67.4719 18.0582 67.4719 18.246C67.4719 18.4338 67.5451 18.6104 67.6779 18.7432C67.9521 19.0174 68.3982 19.0174 68.6722 18.7432C68.8052 18.6104 68.8782 18.4338 68.8782 18.246C68.8782 18.0582 68.805 17.8818 68.6722 17.7488C68.5352 17.6116 68.3552 17.5432 68.175 17.5432Z" fill="#00A76F"/>
<path opacity="0.08" d="M16.4649 36.9937C15.8848 36.9937 15.3045 36.7727 14.8629 36.3312C13.9796 35.4477 13.9796 34.0104 14.8629 33.1271C15.7462 32.244 17.1837 32.2438 18.067 33.1271C18.9502 34.0106 18.9502 35.4477 18.067 36.3312C17.6254 36.7727 17.0451 36.9937 16.4649 36.9937ZM16.4649 34.0263C16.2849 34.0263 16.1048 34.0948 15.9677 34.232C15.6935 34.506 15.6935 34.9521 15.9677 35.2263C16.2418 35.5006 16.6881 35.5004 16.9621 35.2263C17.2363 34.9523 17.2363 34.5062 16.9621 34.232C16.8251 34.0948 16.6451 34.0263 16.4649 34.0263Z" fill="#00A76F"/>
<path opacity="0.48" d="M15.4577 44.0159C15.2577 44.0159 15.0579 43.9396 14.9052 43.7871L13.9733 42.8552L13.0415 43.7871C12.7363 44.0921 12.2418 44.0921 11.9366 43.7871C11.6315 43.4819 11.6315 42.9873 11.9366 42.6823L13.421 41.1979C13.7262 40.8929 14.2207 40.8929 14.5258 41.1979L16.0102 42.6823C16.3154 42.9874 16.3154 43.4821 16.0102 43.7871C15.8576 43.9394 15.6577 44.0159 15.4577 44.0159Z" fill="#00A76F"/>
<path opacity="0.24" d="M66.6906 66.6408C66.4906 66.6408 66.2908 66.5645 66.1381 66.412L65.2063 65.4801L64.2744 66.412C63.9692 66.717 63.4747 66.717 63.1695 66.412C62.8644 66.1069 62.8644 65.6122 63.1695 65.3072L64.6539 63.8228C64.9591 63.5178 65.4536 63.5178 65.7588 63.8228L67.2431 65.3072C67.5483 65.6123 67.5483 66.107 67.2431 66.412C67.0905 66.5644 66.8906 66.6408 66.6906 66.6408Z" fill="#00A76F"/>
</g>
<path d="M46.6667 26.625C47.4446 26.6248 48.1938 26.9185 48.7642 27.4475C49.3346 27.9764 49.684 28.7014 49.7423 29.4771L49.75 29.7083V37.4167H52.0625C52.6374 37.4167 53.1916 37.6308 53.6171 38.0173C54.0427 38.4038 54.309 38.935 54.3642 39.5072L54.375 39.7292V51.2917C54.3751 52.4714 53.9243 53.6065 53.115 54.4648C52.3057 55.3231 51.199 55.8398 50.0213 55.909L49.75 55.9167H29.7083C28.9304 55.9169 28.1812 55.6231 27.6108 55.0942C27.0404 54.5653 26.6911 53.8403 26.6327 53.0646L26.625 52.8333V29.7083C26.6248 28.9304 26.9185 28.1812 27.4475 27.6108C27.9764 27.0404 28.7014 26.6911 29.4771 26.6327L29.7083 26.625H46.6667ZM51.2917 40.5H49.75V52.8333C50.1589 52.8333 50.551 52.6709 50.8401 52.3818C51.1292 52.0927 51.2917 51.7005 51.2917 51.2917V40.5ZM38.9583 42.0417H34.3333C33.9404 42.0421 33.5624 42.1926 33.2767 42.4623C32.991 42.7321 32.8191 43.1007 32.796 43.493C32.773 43.8852 32.9006 44.2715 33.1528 44.5728C33.405 44.8741 33.7628 45.0678 34.153 45.1142L34.3333 45.125H38.9583C39.3513 45.1246 39.7292 44.9741 40.0149 44.7044C40.3007 44.4346 40.4726 44.0659 40.4956 43.6737C40.5187 43.2814 40.391 42.8952 40.1388 42.5938C39.8866 42.2925 39.5289 42.0989 39.1387 42.0525L38.9583 42.0417ZM42.0417 34.3333H34.3333C33.9245 34.3333 33.5323 34.4958 33.2432 34.7849C32.9541 35.074 32.7917 35.4661 32.7917 35.875C32.7917 36.2839 32.9541 36.676 33.2432 36.9651C33.5323 37.2542 33.9245 37.4167 34.3333 37.4167H42.0417C42.4505 37.4167 42.8427 37.2542 43.1318 36.9651C43.4209 36.676 43.5833 36.2839 43.5833 35.875C43.5833 35.4661 43.4209 35.074 43.1318 34.7849C42.8427 34.4958 42.4505 34.3333 42.0417 34.3333Z" fill="#0E8D65"/>
</g>
<defs>
<linearGradient id="paint0_linear_10_106" x1="54.8017" y1="85.5018" x2="87.7477" y2="16.1512" gradientUnits="userSpaceOnUse">
<stop/>
<stop offset="1" stop-opacity="0.01"/>
</linearGradient>
<clipPath id="clip0_10_106">
<rect width="80" height="80" fill="white"/>
</clipPath>
</defs>
</svg>
